# xmcd CD database file
#
# Track frame offsets:
#	150
#	16529
#	33338
#	47259
#	64815
#	79534
#	98472
#	112745
#	130745
#	147464
#	167968
#	179501
#	196864
#
# Disc length: 2837 seconds
#
# Revision: 0
# Processed by: cddbd v1.5.2PL0 Copyright (c) Steve Scherf et al.
# Submitted via: CDex 1.70beta2
#
DISCID=980b130d
DTITLE=Brent Moyer - Gypsy Rendezvous
DYEAR=2006
DGENRE=Country
TTITLE0=Winds Of Change
TTITLE1=Trouble With Love
TTITLE2=Beaten Path
TTITLE3=Gypsy Rendezvous
TTITLE4=Used To Be
TTITLE5=El Mundo
TTITLE6=Blue Blue Tears
TTITLE7=Pauvre Coeur Casse
TTITLE8=Butt, Bop, Boogie
TTITLE9=Kiki Riki
TTITLE10=I'm Saying It Right
TTITLE11=Ring Of Fire
TTITLE12=Faith Will Survive
EXTD=YEAR: 2006
EXTT0=
EXTT1=
EXTT2=
EXTT3=
EXTT4=
EXTT5=
EXTT6=
EXTT7=
EXTT8=
EXTT9=
EXTT10=
EXTT11=
EXTT12=
PLAYORDER=
